<svg xmlns="http://www.w3.org/2000/svg" width="20" height="20" viewBox="0 0 20 20"><path d="M19.375,20H.625a.6.6,0,0,1-.439-.186.613.613,0,0,1,0-.879.6.6,0,0,1,.439-.186H1.25a1.193,1.193,0,0,0,.889-.371A1.215,1.215,0,0,0,2.5,17.5V1.25A1.2,1.2,0,0,1,2.871.371,1.2,1.2,0,0,1,3.75,0h12.5a1.193,1.193,0,0,1,.889.371,1.215,1.215,0,0,1,.361.879V17.5a1.193,1.193,0,0,0,.371.889,1.215,1.215,0,0,0,.879.361h.625a.625.625,0,0,1,0,1.25ZM7.5,3.125A.634.634,0,0,0,6.875,2.5H5.625A.634.634,0,0,0,5,3.125v1.25A.634.634,0,0,0,5.625,5h1.25A.634.634,0,0,0,7.5,4.375Zm0,3.75a.634.634,0,0,0-.625-.625H5.625A.634.634,0,0,0,5,6.875v1.25a.634.634,0,0,0,.625.625h1.25A.634.634,0,0,0,7.5,8.125Zm0,3.75A.634.634,0,0,0,6.875,10H5.625A.634.634,0,0,0,5,10.625v1.25a.634.634,0,0,0,.625.625h1.25a.634.634,0,0,0,.625-.625Zm3.75-7.5a.634.634,0,0,0-.625-.625H9.375a.634.634,0,0,0-.625.625v1.25A.634.634,0,0,0,9.375,5h1.25a.634.634,0,0,0,.625-.625Zm0,3.75a.634.634,0,0,0-.625-.625H9.375a.634.634,0,0,0-.625.625v1.25a.634.634,0,0,0,.625.625h1.25a.634.634,0,0,0,.625-.625Zm0,3.75A.634.634,0,0,0,10.625,10H9.375a.634.634,0,0,0-.625.625v1.25a.634.634,0,0,0,.625.625h1.25a.634.634,0,0,0,.625-.625ZM11.875,15H8.125a.634.634,0,0,0-.625.625v2.5a.634.634,0,0,0,.625.625h3.75a.634.634,0,0,0,.625-.625v-2.5A.634.634,0,0,0,11.875,15ZM15,3.125a.634.634,0,0,0-.625-.625h-1.25a.634.634,0,0,0-.625.625v1.25A.634.634,0,0,0,13.125,5h1.25A.634.634,0,0,0,15,4.375Zm0,3.75a.634.634,0,0,0-.625-.625h-1.25a.634.634,0,0,0-.625.625v1.25a.634.634,0,0,0,.625.625h1.25A.634.634,0,0,0,15,8.125Zm0,3.75A.634.634,0,0,0,14.375,10h-1.25a.634.634,0,0,0-.625.625v1.25a.634.634,0,0,0,.625.625h1.25A.634.634,0,0,0,15,11.875Z" fill="#89959e"/></svg>