<svg xmlns="http://www.w3.org/2000/svg" width="14" height="16.551" viewBox="0 0 14 16.551"><path d="M13.474,18.8a5.286,5.286,0,0,1-2.751-1.108A18.453,18.453,0,0,1,6.4,13.874a19.469,19.469,0,0,1-3.244-5.1C2.009,6.294,2.2,5,2.425,4.442A3.3,3.3,0,0,1,3.57,2.989a5.287,5.287,0,0,1,.9-.562l.086-.045a.724.724,0,0,1,.686-.074,2.076,2.076,0,0,1,.652.591A13.159,13.159,0,0,1,7.52,5.76a3.228,3.228,0,0,1,.32,1.172,2.036,2.036,0,0,1-.4,1.1c-.041.066-.082.129-.121.191-.238.369-.29.476-.256.667a7.246,7.246,0,0,0,1.444,2.531,5.671,5.671,0,0,0,2.117,1.665c.168.043.26-.022.583-.313.046-.042.094-.085.144-.128a1.471,1.471,0,0,1,.946-.5h0a2.044,2.044,0,0,1,1,.413,12.012,12.012,0,0,1,2.411,1.913,2.39,2.39,0,0,1,.5.769,1.157,1.157,0,0,1-.063.813c-.012.03-.024.064-.038.1a6.985,6.985,0,0,1-.478,1.056A3.182,3.182,0,0,1,14.4,18.562a1.839,1.839,0,0,1-.924.24Z" transform="translate(-2.257 -2.25)" fill="#89959e"/></svg>