<svg xmlns="http://www.w3.org/2000/svg" width="17.912" height="17.911" viewBox="0 0 17.912 17.911"><path d="M14.973,7.067a.727.727,0,0,0-.21-.537L13.7,5.481a.732.732,0,0,0-1.049,0L7.894,10.226,5.259,7.591a.732.732,0,0,0-1.049,0L3.149,8.641a.727.727,0,0,0-.21.537.712.712,0,0,0,.21.525L7.37,13.923a.717.717,0,0,0,.525.222.731.731,0,0,0,.537-.222l6.331-6.331a.712.712,0,0,0,.21-.525Zm2.939,1.889a8.759,8.759,0,0,1-1.2,4.495,8.92,8.92,0,0,1-3.261,3.26,8.748,8.748,0,0,1-4.495,1.2,8.787,8.787,0,0,1-4.495-1.2A8.884,8.884,0,0,1,1.2,13.45,8.779,8.779,0,0,1,0,8.955,8.76,8.76,0,0,1,1.2,4.461,8.9,8.9,0,0,1,4.461,1.2,8.781,8.781,0,0,1,8.955,0,8.743,8.743,0,0,1,13.45,1.2a8.929,8.929,0,0,1,3.26,3.26,8.75,8.75,0,0,1,1.2,4.495Z" fill="#198754"/></svg>