<svg xmlns="http://www.w3.org/2000/svg" width="14" height="14" viewBox="0 0 14 14"><path d="M11.7,5.523a.568.568,0,0,0-.164-.419l-.83-.82a.573.573,0,0,0-.821,0L6.17,7.994l-2.06-2.06a.573.573,0,0,0-.821,0l-.829.82a.568.568,0,0,0-.164.419.557.557,0,0,0,.164.41l3.3,3.3a.561.561,0,0,0,.41.173.571.571,0,0,0,.419-.173l4.949-4.949a.557.557,0,0,0,.164-.41ZM14,7a6.848,6.848,0,0,1-.939,3.514,6.968,6.968,0,0,1-2.548,2.548A6.848,6.848,0,0,1,7,14a6.848,6.848,0,0,1-3.514-.939A6.968,6.968,0,0,1,.939,10.514,6.848,6.848,0,0,1,0,7,6.848,6.848,0,0,1,.939,3.486,6.968,6.968,0,0,1,3.486.939,6.848,6.848,0,0,1,7,0a6.848,6.848,0,0,1,3.514.939,6.968,6.968,0,0,1,2.548,2.548A6.848,6.848,0,0,1,14,7Z" fill="#13b528"/></svg>