<svg xmlns="http://www.w3.org/2000/svg" width="24" height="24" viewBox="0 0 24 24"><path d="M5.7,17.4H5.4a2.4,2.4,0,1,1,0-4.8h.3A9.542,9.542,0,0,1,6.73,10.123l-.216-.214a2.4,2.4,0,0,1,3.4-3.394l.214.214A9.542,9.542,0,0,1,12.6,5.7V5.4a2.4,2.4,0,1,1,4.8,0v.3A9.542,9.542,0,0,1,19.877,6.73l.214-.216a2.4,2.4,0,1,1,3.394,3.4l-.214.214A9.5,9.5,0,0,1,24.3,12.6h.3a2.4,2.4,0,0,1,0,4.8h-.3a9.542,9.542,0,0,1-1.027,2.477l.216.214a2.4,2.4,0,1,1-3.4,3.394l-.214-.214A9.542,9.542,0,0,1,17.4,24.3v.3a2.4,2.4,0,1,1-4.8,0v-.3a9.542,9.542,0,0,1-2.477-1.027l-.214.216a2.4,2.4,0,0,1-3.394-3.4l.214-.214A9.542,9.542,0,0,1,5.7,17.4Zm5.7-4.8L9,15l4.8,4.8L21,12.6l-2.4-2.4L13.8,15Z" transform="translate(-3 -3)" fill="#198754" fill-rule="evenodd"/></svg>