<svg xmlns="http://www.w3.org/2000/svg" width="16.25" height="20" viewBox="0 0 16.25 20"><path d="M20.181,3.875h-4.45A2.781,2.781,0,0,0,13.162,2a2.787,2.787,0,0,0-2.537,1.875H6.25A1.094,1.094,0,0,0,5,4.931V20.944A1.062,1.062,0,0,0,6.069,22H20.181a1.062,1.062,0,0,0,1.069-1.056V4.931A1.062,1.062,0,0,0,20.181,3.875ZM8.931,5.75a.625.625,0,0,1,.625-.625h2.15V4.694a1.447,1.447,0,1,1,2.894,0v.431h2.15a.625.625,0,0,1,.625.625V7H8.944ZM17.5,18.25H8.75V17H17.5Zm0-2.5H8.75V14.5H17.5Zm0-2.5H8.75V12H17.5Zm0-2.5H8.75V9.5H17.5Z" transform="translate(-5 -2)" fill="#89959e"/></svg>