<svg xmlns="http://www.w3.org/2000/svg" width="20.27" height="20.27" viewBox="0 0 20.27 20.27"><path d="M10.135,0a9.913,9.913,0,0,1,5.087,1.359,10.1,10.1,0,0,1,3.689,3.689,9.9,9.9,0,0,1,1.359,5.087,9.941,9.941,0,0,1-1.359,5.087,10.058,10.058,0,0,1-3.688,3.688,9.941,9.941,0,0,1-5.088,1.36,9.9,9.9,0,0,1-5.087-1.359,10.1,10.1,0,0,1-3.689-3.689A9.913,9.913,0,0,1,0,10.135,9.913,9.913,0,0,1,1.359,5.048,10.1,10.1,0,0,1,5.048,1.359,9.9,9.9,0,0,1,10.135,0Zm1.689,16.456V13.948a.432.432,0,0,0-.119-.31.386.386,0,0,0-.291-.125H8.882a.451.451,0,0,0-.435.435v2.508a.451.451,0,0,0,.435.435h2.534a.386.386,0,0,0,.291-.125.432.432,0,0,0,.119-.31Zm-.026-4.54.237-8.195a.258.258,0,0,0-.132-.237.491.491,0,0,0-.317-.106h-2.9a.491.491,0,0,0-.317.106.259.259,0,0,0-.132.237l.225,8.195a.285.285,0,0,0,.132.231.513.513,0,0,0,.317.1h2.442a.484.484,0,0,0,.31-.1.335.335,0,0,0,.139-.231Z" fill="#f6f8f9"/></svg>