<svg xmlns="http://www.w3.org/2000/svg" width="19.486" height="15.477" viewBox="0 0 19.486 15.477"><g transform="translate(0 -3.703)"><path d="M13.141,16.637l-1.966-1.708a4.736,4.736,0,0,1-4.45-.868,3.362,3.362,0,0,1-1-3.864L3.217,8.018A14.831,14.831,0,0,0,0,11.442s3.654,5.817,9.743,5.817a9.68,9.68,0,0,0,3.4-.622Zm-6.8-10.39a9.679,9.679,0,0,1,3.4-.622c6.089,0,9.743,5.817,9.743,5.817a14.9,14.9,0,0,1-3.216,3.424l-2.511-2.181a3.362,3.362,0,0,0-1-3.864,4.736,4.736,0,0,0-4.45-.868L6.346,6.248Z" fill="#0b326d"/><path d="M12.431,17.2A5.625,5.625,0,0,0,18.8,23.568L12.429,17.2ZM23.569,18.8,17.2,12.429a5.625,5.625,0,0,1,6.365,6.365Z" transform="translate(-8.257 -6.557)" fill="#0b326d"/><path d="M15.11,19.18,3.7,4.565,4.377,3.7,15.783,18.318Z" transform="translate(0 0)" fill="#0b326d" fill-rule="evenodd"/></g></svg>