<svg xmlns="http://www.w3.org/2000/svg" width="26.706" height="16" viewBox="0 0 26.706 16"><path d="M17.355,15.215a3.928,3.928,0,0,1-4.01,3.841,3.928,3.928,0,0,1-4.01-3.841,3.928,3.928,0,0,1,4.01-3.841A3.928,3.928,0,0,1,17.355,15.215Zm-4-8A16.39,16.39,0,0,0,6.434,8.853a17.6,17.6,0,0,0-4.711,3.43A5.812,5.812,0,0,0,0,15.215c.017.983,1.071,2.2,1.723,2.932a17.351,17.351,0,0,0,4.711,3.431,16.214,16.214,0,0,0,6.919,1.637,16.47,16.47,0,0,0,6.918-1.637,17.639,17.639,0,0,0,4.712-3.431,5.811,5.811,0,0,0,1.723-2.932c-.017-.983-1.071-2.2-1.723-2.932a17.368,17.368,0,0,0-4.712-3.43A16.316,16.316,0,0,0,13.353,7.216Zm0,1.986a6.157,6.157,0,0,1,6.291,6.015,6.157,6.157,0,0,1-6.291,6.014A6.158,6.158,0,0,1,7.06,15.217,6.158,6.158,0,0,1,13.351,9.2Z" transform="translate(0 -7.216)" fill="#0b326d"/></svg>