<svg xmlns="http://www.w3.org/2000/svg" width="18.749" height="12.5" viewBox="0 0 18.749 12.5"><path d="M12.5,10A2.5,2.5,0,1,1,10,7.5,2.5,2.5,0,0,1,12.5,10Z" transform="translate(-0.625 -3.75)" fill="#89959e"/><path d="M19.173,9.32A13.255,13.255,0,0,0,15.3,5.393,9.807,9.807,0,0,0,9.987,3.75,9.357,9.357,0,0,0,5.133,5.161,14.223,14.223,0,0,0,.849,9.3a1.247,1.247,0,0,0-.025,1.388,13.065,13.065,0,0,0,3.839,3.932A9.673,9.673,0,0,0,9.987,16.25a9.853,9.853,0,0,0,5.32-1.63,13.042,13.042,0,0,0,3.87-3.942,1.258,1.258,0,0,0,0-1.358ZM10,13.75A3.75,3.75,0,1,1,13.75,10,3.75,3.75,0,0,1,10,13.75Z" transform="translate(-0.625 -3.75)" fill="#89959e"/></svg>