<svg xmlns="http://www.w3.org/2000/svg" width="17.684" height="11.368" viewBox="0 0 17.684 11.368"><path d="M16.421,8.255a9.7,9.7,0,0,0-3.76-3.484,4.313,4.313,0,0,1,.6,2.22,4.257,4.257,0,0,1-1.3,3.123,4.26,4.26,0,0,1-3.123,1.3,4.256,4.256,0,0,1-3.123-1.3,4.258,4.258,0,0,1-1.3-3.124,4.313,4.313,0,0,1,.6-2.22,9.7,9.7,0,0,0-3.76,3.484,10.188,10.188,0,0,0,3.291,3.222,8.266,8.266,0,0,0,8.576,0A10.188,10.188,0,0,0,16.421,8.255ZM9.316,4.466a.471.471,0,0,0-.474-.474,2.887,2.887,0,0,0-2.117.883,2.887,2.887,0,0,0-.883,2.116.474.474,0,1,0,.947,0A2.055,2.055,0,0,1,8.842,4.94a.471.471,0,0,0,.474-.474Zm8.369,3.789a1.365,1.365,0,0,1-.2.681,10.469,10.469,0,0,1-3.716,3.637,9.558,9.558,0,0,1-9.858,0A10.528,10.528,0,0,1,.2,8.936a1.272,1.272,0,0,1,0-1.362A10.543,10.543,0,0,1,3.913,3.943a9.542,9.542,0,0,1,9.858,0,10.527,10.527,0,0,1,3.715,3.632A1.365,1.365,0,0,1,17.684,8.255Z" transform="translate(0 -2.571)" fill="#0b326d"/></svg>