<svg xmlns="http://www.w3.org/2000/svg" xmlns:xlink="http://www.w3.org/1999/xlink" width="56" height="56" viewBox="0 0 56 56"><defs><filter id="a" x="0" y="0" width="56" height="56" filterUnits="userSpaceOnUse"><feOffset dy="3" input="SourceAlpha"/><feGaussianBlur stdDeviation="3" result="b"/><feFlood flood-opacity="0.161"/><feComposite operator="in" in2="b"/><feComposite in="SourceGraphic"/></filter></defs><g transform="translate(-977 -343)"><g transform="matrix(1, 0, 0, 1, 977, 343)" filter="url(#a)"><circle cx="19" cy="19" r="19" transform="translate(9 6)" fill="#fff" opacity="0.8"/></g><g transform="translate(995.5 377.501) rotate(-90)"><path d="M.4.4A1.357,1.357,0,0,1,2.32.4L9.5,7.583,16.682.4A1.359,1.359,0,1,1,18.6,2.32l-8.142,8.142a1.357,1.357,0,0,1-1.921,0L.4,2.32A1.357,1.357,0,0,1,.4.4Z" transform="translate(0 8.139)" fill="#333" fill-rule="evenodd"/><path d="M1.357,0A1.357,1.357,0,0,1,2.714,1.357v13.57a1.357,1.357,0,1,1-2.714,0V1.357A1.357,1.357,0,0,1,1.357,0Z" transform="translate(8.144)" fill="#333" fill-rule="evenodd"/></g></g></svg>