<svg xmlns="http://www.w3.org/2000/svg" width="36" height="36" viewBox="0 0 36 36"><circle cx="18" cy="18" r="18" fill="#f6e2dd"/><path d="M16.328,10.506a3.189,3.189,0,0,0,.254,1.269,3.318,3.318,0,0,0,1.748,1.748,3.171,3.171,0,0,0,1.269.254V16.4H0V13.778a3.189,3.189,0,0,0,1.269-.254,3.292,3.292,0,0,0,1.043-.705,3.316,3.316,0,0,0,.705-1.043,3.171,3.171,0,0,0,.254-1.269V6.586a6.376,6.376,0,0,1,.507-2.538,6.6,6.6,0,0,1,1.41-2.087A6.692,6.692,0,0,1,7.247.551,6.246,6.246,0,0,1,9.785.044a6.246,6.246,0,0,1,2.538.507,7.049,7.049,0,0,1,2.087,1.41,6.028,6.028,0,0,1,1.41,2.087,7.1,7.1,0,0,1,.507,2.538v3.919ZM9.785,19.643a2.393,2.393,0,0,1-1.579-.564A2.877,2.877,0,0,1,7.275,17.7h5.048a2.555,2.555,0,0,1-.9,1.382,2.688,2.688,0,0,1-1.635.564Z" transform="translate(8 7.956)" fill="#dcbdb5"/></svg>