<svg xmlns="http://www.w3.org/2000/svg" width="26" height="28.366" viewBox="0 0 26 28.366"><g transform="translate(-1585 -36)"><path d="M29.05,24.385l-.3-.257a12.387,12.387,0,0,1-2.19-2.514,10.7,10.7,0,0,1-1.178-4.126V13.249a9.328,9.328,0,0,0-8.236-9.222V2.92a1.165,1.165,0,0,0-2.33,0V4.044a9.326,9.326,0,0,0-8.14,9.205v4.238A10.7,10.7,0,0,1,5.5,21.614a12.408,12.408,0,0,1-2.155,2.514l-.3.257V26.8h26Z" transform="translate(1581.95 34.225)"/><path d="M15.32,32a2.65,2.65,0,0,0,5.25,0Z" transform="translate(1580.051 30.079)"/></g></svg>