<svg xmlns="http://www.w3.org/2000/svg" xmlns:xlink="http://www.w3.org/1999/xlink" width="56" height="56" viewBox="0 0 56 56"><defs><filter id="a" x="0" y="0" width="56" height="56" filterUnits="userSpaceOnUse"><feOffset dy="3" input="SourceAlpha"/><feGaussianBlur stdDeviation="3" result="b"/><feFlood flood-opacity="0.161"/><feComposite operator="in" in2="b"/><feComposite in="SourceGraphic"/></filter></defs><g transform="translate(9 6)"><g transform="matrix(1, 0, 0, 1, -9, -6)" filter="url(#a)"><circle cx="19" cy="19" r="19" transform="translate(9 6)" fill="#fff" opacity="0.8"/></g><g transform="translate(10.231 27.77) rotate(-90)"><path d="M.368,9.657a1.253,1.253,0,0,0,1.774,0L8.77,3.026,15.4,9.657a1.254,1.254,0,1,0,1.774-1.774L9.657.368a1.253,1.253,0,0,0-1.774,0L.368,7.883a1.253,1.253,0,0,0,0,1.774Z" transform="translate(0 0)" fill="#333" fill-rule="evenodd"/><path d="M1.253,15.031a1.253,1.253,0,0,0,1.253-1.253V1.253A1.253,1.253,0,1,0,0,1.253V13.778A1.253,1.253,0,0,0,1.253,15.031Z" transform="translate(7.517 2.507)" fill="#333" fill-rule="evenodd"/></g></g></svg>