<svg xmlns="http://www.w3.org/2000/svg" width="24.079" height="21.458" viewBox="0 0 24.079 21.458"><path d="M22.96,4.793a6.4,6.4,0,0,0-9.049,0l-.775.785L12.367,4.8l0,0a6.4,6.4,0,0,0-9.046,0l-.345.345a6.4,6.4,0,0,0,0,9.046L12.084,23.3l1.029,1.078.025-.025.026.026.964-1.017,9.177-9.177a6.4,6.4,0,0,0,0-9.046Zm-.785,8.26L13.138,22.09,4.1,13.053a4.8,4.8,0,0,1,0-6.784l.345-.345a4.8,4.8,0,0,1,6.782,0l1.9,1.938,1.912-1.936a4.8,4.8,0,0,1,6.784,0l.345.345a4.8,4.8,0,0,1,0,6.784Z" transform="translate(-1.097 -2.92)" fill="#0b326d"/></svg>