<svg xmlns="http://www.w3.org/2000/svg" width="18.167" height="18.166" viewBox="0 0 18.167 18.166"><path d="M18.167,9.083a8.84,8.84,0,0,1-.721,3.524,8.97,8.97,0,0,1-4.837,4.837,8.84,8.84,0,0,1-3.524.721,9.019,9.019,0,0,1-3.868-.857,8.89,8.89,0,0,1-3.123-2.418.425.425,0,0,1-.077-.266.346.346,0,0,1,.1-.243l1.62-1.632a.426.426,0,0,1,.3-.106.367.367,0,0,1,.272.142,6.02,6.02,0,0,0,7.127,1.875,6,6,0,0,0,3.228-3.228,5.863,5.863,0,0,0,.479-2.348,5.947,5.947,0,0,0-.479-2.348,6.047,6.047,0,0,0-1.3-1.934,6.136,6.136,0,0,0-1.934-1.294,5.9,5.9,0,0,0-2.348-.48,6.009,6.009,0,0,0-2.224.42,5.863,5.863,0,0,0-1.892,1.2L6.588,6.28a.671.671,0,0,1,.165.816.707.707,0,0,1-.7.473H.757a.727.727,0,0,1-.532-.224A.727.727,0,0,1,0,6.813v-5.3a.707.707,0,0,1,.473-.7.673.673,0,0,1,.816.165L2.827,2.508A9.161,9.161,0,0,1,5.719.657,8.932,8.932,0,0,1,9.083,0a8.84,8.84,0,0,1,3.524.721,8.97,8.97,0,0,1,4.837,4.837,8.84,8.84,0,0,1,.721,3.524ZM10.6,5.677v5.3a.364.364,0,0,1-.378.378H6.434a.364.364,0,0,1-.378-.378v-.757a.364.364,0,0,1,.378-.378h2.65V5.677A.364.364,0,0,1,9.461,5.3h.757a.364.364,0,0,1,.378.378Z" fill="#89959e"/></svg>