<svg xmlns="http://www.w3.org/2000/svg" width="14.971" height="10.617" viewBox="0 0 14.971 10.617"><path d="M19.93,7.247H8.832a.606.606,0,0,0-.606.606v.558a.606.606,0,0,0,.606.606h11.1a.606.606,0,0,0,.606-.606V7.853a.606.606,0,0,0-.606-.606Z" transform="translate(-5.565 -7.246)" fill="#fff"/><path d="M19.93,16.208H8.832a.606.606,0,0,0-.606.606v.558a.606.606,0,0,0,.606.606h11.1a.606.606,0,0,0,.606-.606v-.558A.606.606,0,0,0,19.93,16.208Z" transform="translate(-5.565 -11.784)" fill="#fff"/><path d="M19.93,25.168H8.832a.606.606,0,0,0-.606.606v.558a.606.606,0,0,0,.606.606h11.1a.606.606,0,0,0,.606-.606v-.559a.606.606,0,0,0-.606-.606Z" transform="translate(-5.565 -16.322)" fill="#fff"/><path d="M4.6,8.13a.885.885,0,1,1-.885-.885A.885.885,0,0,1,4.6,8.13Z" transform="translate(-2.834 -7.245)" fill="#fff"/><path d="M4.6,16.732a.885.885,0,1,1-.885-.885A.885.885,0,0,1,4.6,16.732Z" transform="translate(-2.834 -11.601)" fill="#fff"/><path d="M4.6,26.052a.885.885,0,1,1-.885-.885.885.885,0,0,1,.885.885Z" transform="translate(-2.834 -16.321)" fill="#fff"/></svg>