<svg xmlns="http://www.w3.org/2000/svg" width="18.144" height="18.145" viewBox="0 0 18.144 18.145"><path d="M17.023,18.145H7.951a1.082,1.082,0,0,1-.806-.337,1.1,1.1,0,0,1-.328-.8V14.742a1.1,1.1,0,0,1,.328-.8,1.082,1.082,0,0,1,.806-.337h9.072a1.149,1.149,0,0,1,1.134,1.134V17.01a1.082,1.082,0,0,1-.337.806A1.1,1.1,0,0,1,17.023,18.145Zm0-6.8H7.951a1.12,1.12,0,0,1-1.134-1.134V7.938A1.12,1.12,0,0,1,7.951,6.8h9.072a1.1,1.1,0,0,1,.8.328,1.082,1.082,0,0,1,.337.806v2.268a1.082,1.082,0,0,1-.337.806,1.1,1.1,0,0,1-.8.328Zm0-6.8H7.951A1.082,1.082,0,0,1,7.145,4.2a1.1,1.1,0,0,1-.328-.8V1.134A1.1,1.1,0,0,1,7.145.328,1.1,1.1,0,0,1,7.951,0h9.072a1.1,1.1,0,0,1,.8.328,1.082,1.082,0,0,1,.337.806V3.4a1.089,1.089,0,0,1-.337.8,1.089,1.089,0,0,1-.8.337ZM3.415,18.145H1.147a1.089,1.089,0,0,1-.8-.337,1.089,1.089,0,0,1-.337-.8V14.742a1.089,1.089,0,0,1,.337-.8,1.089,1.089,0,0,1,.8-.337H3.415a1.089,1.089,0,0,1,.8.337,1.089,1.089,0,0,1,.337.8V17.01a1.12,1.12,0,0,1-1.134,1.134Zm0-6.8H1.147a1.1,1.1,0,0,1-.8-.328,1.082,1.082,0,0,1-.337-.806V7.938A1.082,1.082,0,0,1,.35,7.132a1.1,1.1,0,0,1,.8-.328H3.415a1.1,1.1,0,0,1,.8.328,1.082,1.082,0,0,1,.337.806v2.268a1.12,1.12,0,0,1-1.134,1.134Zm0-6.8H1.147A1.089,1.089,0,0,1,.35,4.2a1.089,1.089,0,0,1-.337-.8V1.134A1.082,1.082,0,0,1,.35.328,1.1,1.1,0,0,1,1.147,0H3.415a1.1,1.1,0,0,1,.8.328,1.082,1.082,0,0,1,.337.806V3.4a1.1,1.1,0,0,1-.328.8,1.082,1.082,0,0,1-.806.337Z" transform="translate(-0.013)" fill="#89959e"/></svg>