<svg xmlns="http://www.w3.org/2000/svg" width="24" height="19.999" viewBox="0 0 24 19.999"><path d="M24,4.34a6.45,6.45,0,0,1-.9,1.284,6.624,6.624,0,0,1-1.619,1.365c.018.143.031.276.04.4a14.567,14.567,0,0,1-1.03,5.579,14.688,14.688,0,0,1-5.846,7.264A15.372,15.372,0,0,1,5.5,21.905,10.516,10.516,0,0,1,0,19.778a10.247,10.247,0,0,0,7.331-2.114,5.05,5.05,0,0,1-4.655-3.451,3.156,3.156,0,0,0,1.043.054A9.562,9.562,0,0,0,4.9,14.106a5.519,5.519,0,0,1-3.344-2.6A5.6,5.6,0,0,1,.99,9.049a4.7,4.7,0,0,0,2.221.669A5.739,5.739,0,0,1,1.03,6.173a6.56,6.56,0,0,1,.6-3.2A16.825,16.825,0,0,0,7.344,7.257a11.821,11.821,0,0,0,4.482.936,5.99,5.99,0,0,1,.6-3.8,5.185,5.185,0,0,1,3.09-2.248,4.561,4.561,0,0,1,4.575,1.418,8.149,8.149,0,0,0,3.184-1.177,4.828,4.828,0,0,1-2.194,2.836A13.861,13.861,0,0,0,24,4.34Z" transform="translate(0 -2)" fill="#89959e"/></svg>